<mxfile host="65bd71144e">
    <diagram id="HDwmCHCDb6d26ePYv1gX" name="Page-1">
        <mxGraphModel dx="1045" dy="786" grid="1" gridSize="10" guides="1" tooltips="1" connect="1" arrows="1" fold="1" page="1" pageScale="1" pageWidth="827" pageHeight="1169" background="#ffffff" math="0" shadow="0">
            <root>
                <mxCell id="0"/>
                <mxCell id="1" parent="0"/>
                <mxCell id="O1P1b6u8nso_QOeiBwt5-1" value="&lt;span style=&quot;font-size: 30px;&quot;&gt;client &lt;font color=&quot;#ff0000&quot;&gt;nextJS&lt;/font&gt;&lt;br&gt;&lt;/span&gt;" style="rounded=0;whiteSpace=wrap;html=1;" parent="1" vertex="1">
                    <mxGeometry x="259" y="170" width="310" height="90" as="geometry"/>
                </mxCell>
                <mxCell id="gF5L-ClVsSQP7lW-zP8s-2" style="edgeStyle=orthogonalEdgeStyle;rounded=0;orthogonalLoop=1;jettySize=auto;html=1;entryX=0.5;entryY=0;entryDx=0;entryDy=0;" parent="1" source="O1P1b6u8nso_QOeiBwt5-4" target="gF5L-ClVsSQP7lW-zP8s-1" edge="1">
                    <mxGeometry relative="1" as="geometry"/>
                </mxCell>
                <mxCell id="O1P1b6u8nso_QOeiBwt5-4" value="&lt;font style=&quot;font-size: 25px&quot;&gt;Todo&lt;/font&gt;" style="rounded=0;whiteSpace=wrap;html=1;fontSize=30;" parent="1" vertex="1">
                    <mxGeometry x="355" y="310" width="118" height="130" as="geometry"/>
                </mxCell>
                <mxCell id="gF5L-ClVsSQP7lW-zP8s-1" value="&lt;font color=&quot;#ff0000&quot; style=&quot;font-size: 20px;&quot;&gt;MongoDB&lt;/font&gt;" style="rounded=0;whiteSpace=wrap;html=1;fontSize=30;" parent="1" vertex="1">
                    <mxGeometry x="353" y="470" width="120" height="60" as="geometry"/>
                </mxCell>
                <mxCell id="gF5L-ClVsSQP7lW-zP8s-6" value="&lt;font size=&quot;3&quot;&gt;QueueManager&lt;br&gt;comsumer&lt;br&gt;producer&lt;br&gt;&lt;/font&gt;" style="rounded=0;whiteSpace=wrap;html=1;fontSize=25;" parent="1" vertex="1">
                    <mxGeometry x="93" y="310" width="121" height="220" as="geometry"/>
                </mxCell>
                <mxCell id="gF5L-ClVsSQP7lW-zP8s-9" style="edgeStyle=orthogonalEdgeStyle;rounded=0;orthogonalLoop=1;jettySize=auto;html=1;entryX=0.5;entryY=0;entryDx=0;entryDy=0;" parent="1" source="gF5L-ClVsSQP7lW-zP8s-10" target="gF5L-ClVsSQP7lW-zP8s-11" edge="1">
                    <mxGeometry relative="1" as="geometry"/>
                </mxCell>
                <mxCell id="gF5L-ClVsSQP7lW-zP8s-10" value="&lt;font style=&quot;font-size: 25px&quot;&gt;Auth&lt;/font&gt;&lt;br style=&quot;font-size: 14px&quot;&gt;&lt;font style=&quot;font-size: 12px&quot;&gt;Oauth-google-github&lt;/font&gt;" style="rounded=0;whiteSpace=wrap;html=1;fontSize=30;" parent="1" vertex="1">
                    <mxGeometry x="613" y="310" width="121" height="130" as="geometry"/>
                </mxCell>
                <mxCell id="gF5L-ClVsSQP7lW-zP8s-11" value="&lt;span style=&quot;color: rgb(255, 0, 0); font-size: 20px;&quot;&gt;MongoDB&lt;/span&gt;" style="rounded=0;whiteSpace=wrap;html=1;fontSize=30;" parent="1" vertex="1">
                    <mxGeometry x="614" y="470" width="120" height="60" as="geometry"/>
                </mxCell>
                <mxCell id="gF5L-ClVsSQP7lW-zP8s-12" value="" style="endArrow=none;dashed=1;html=1;rounded=0;fontSize=20;fontColor=#FF0000;" parent="1" edge="1">
                    <mxGeometry width="50" height="50" relative="1" as="geometry">
                        <mxPoint x="110" y="280" as="sourcePoint"/>
                        <mxPoint x="760" y="280" as="targetPoint"/>
                    </mxGeometry>
                </mxCell>
                <mxCell id="gF5L-ClVsSQP7lW-zP8s-13" value="&lt;h1&gt;&lt;font color=&quot;#000000&quot;&gt;ToDo List&lt;/font&gt;&lt;/h1&gt;" style="text;html=1;strokeColor=none;fillColor=none;spacing=5;spacingTop=-20;whiteSpace=wrap;overflow=hidden;rounded=0;fontSize=20;fontColor=#FF0000;" parent="1" vertex="1">
                    <mxGeometry x="325" y="70" width="190" height="80" as="geometry"/>
                </mxCell>
                <mxCell id="gF5L-ClVsSQP7lW-zP8s-17" value="ExpressJS" style="text;html=1;strokeColor=none;fillColor=none;align=center;verticalAlign=middle;whiteSpace=wrap;rounded=0;fontSize=20;fontColor=#FF0000;" parent="1" vertex="1">
                    <mxGeometry x="365" y="320" width="98" height="30" as="geometry"/>
                </mxCell>
                <mxCell id="gF5L-ClVsSQP7lW-zP8s-18" value="ExpressJS" style="text;html=1;strokeColor=none;fillColor=none;align=center;verticalAlign=middle;whiteSpace=wrap;rounded=0;fontSize=20;fontColor=#FF0000;" parent="1" vertex="1">
                    <mxGeometry x="624" y="320" width="100" height="30" as="geometry"/>
                </mxCell>
                <mxCell id="2" style="edgeStyle=orthogonalEdgeStyle;rounded=0;orthogonalLoop=1;jettySize=auto;html=1;entryX=0.5;entryY=0;entryDx=0;entryDy=0;" parent="1" source="3" target="4" edge="1">
                    <mxGeometry relative="1" as="geometry"/>
                </mxCell>
                <mxCell id="3" value="&lt;font style=&quot;font-size: 24px&quot;&gt;Comment&lt;/font&gt;" style="rounded=0;whiteSpace=wrap;html=1;fontSize=30;" parent="1" vertex="1">
                    <mxGeometry x="224" y="310" width="120" height="130" as="geometry"/>
                </mxCell>
                <mxCell id="4" value="&lt;font color=&quot;#ff0000&quot; style=&quot;font-size: 20px;&quot;&gt;MongoDB&lt;/font&gt;" style="rounded=0;whiteSpace=wrap;html=1;fontSize=30;" parent="1" vertex="1">
                    <mxGeometry x="224" y="470" width="120" height="60" as="geometry"/>
                </mxCell>
                <mxCell id="5" value="ExpressJS" style="text;html=1;strokeColor=none;fillColor=none;align=center;verticalAlign=middle;whiteSpace=wrap;rounded=0;fontSize=20;fontColor=#FF0000;" parent="1" vertex="1">
                    <mxGeometry x="234" y="320" width="100" height="30" as="geometry"/>
                </mxCell>
                <mxCell id="76k6Pg_ikLqjMXlGlqFL-7" value="Redis-smq" style="text;html=1;strokeColor=none;fillColor=none;align=center;verticalAlign=middle;whiteSpace=wrap;rounded=0;fontSize=20;fontColor=#FF0000;" parent="1" vertex="1">
                    <mxGeometry x="108" y="330" width="100" height="30" as="geometry"/>
                </mxCell>
                <mxCell id="6" style="edgeStyle=orthogonalEdgeStyle;rounded=0;orthogonalLoop=1;jettySize=auto;html=1;entryX=0.5;entryY=0;entryDx=0;entryDy=0;" parent="1" source="7" target="8" edge="1">
                    <mxGeometry relative="1" as="geometry"/>
                </mxCell>
                <mxCell id="7" value="&lt;font style=&quot;font-size: 25px&quot;&gt;query&lt;/font&gt;" style="rounded=0;whiteSpace=wrap;html=1;fontSize=30;" parent="1" vertex="1">
                    <mxGeometry x="485" y="310" width="118" height="130" as="geometry"/>
                </mxCell>
                <mxCell id="8" value="&lt;font color=&quot;#ff0000&quot; style=&quot;font-size: 20px;&quot;&gt;MongoDB&lt;/font&gt;" style="rounded=0;whiteSpace=wrap;html=1;fontSize=30;" parent="1" vertex="1">
                    <mxGeometry x="483" y="470" width="120" height="60" as="geometry"/>
                </mxCell>
                <mxCell id="9" value="ExpressJS" style="text;html=1;strokeColor=none;fillColor=none;align=center;verticalAlign=middle;whiteSpace=wrap;rounded=0;fontSize=20;fontColor=#FF0000;" parent="1" vertex="1">
                    <mxGeometry x="495" y="320" width="98" height="30" as="geometry"/>
                </mxCell>
            </root>
        </mxGraphModel>
    </diagram>
</mxfile>